<svg width="300" height="157" viewBox="0 0 300 157" fill="none" xmlns="http://www.w3.org/2000/svg">
<path d="M0.5 105.5H23.25V131.5C23.25 134.5 23.75 136.5 24.75 137.5C25.75 138.333 27.75 138.75 30.75 138.75H38C41 138.75 43 138.333 44 137.5C45 136.5 45.5 134.5 45.5 131.5V0.499988H68.25V135C68.25 149.667 60.5 157 45 157H23.75C8.25 157 0.5 149.667 0.5 135V105.5ZM165.746 0.499988H188.996L160.746 157H128.746L100.496 0.499988H123.746L144.496 136.25L165.746 0.499988ZM277.061 61.25V25.5C277.061 22.5 276.561 20.5833 275.561 19.75C274.561 18.75 272.561 18.25 269.561 18.25H244.561V68.5H269.561C272.561 68.5 274.561 68.0833 275.561 67.25C276.561 66.25 277.061 64.25 277.061 61.25ZM277.061 132V93.5C277.061 90.5 276.561 88.5833 275.561 87.75C274.561 86.75 272.561 86.25 269.561 86.25H244.561V139.25H269.561C272.561 139.25 274.561 138.833 275.561 138C276.561 137 277.061 135 277.061 132ZM222.061 0.499988H276.311C291.977 0.499988 299.811 7.83332 299.811 22.5V62.25C299.811 71.0833 296.477 76.25 289.811 77.75C296.477 79.4167 299.811 84.25 299.811 92.25V135C299.811 149.667 291.977 157 276.311 157H222.061V0.499988Z" fill="white"/>
</svg>
